<svg width="26" height="23" viewBox="0 0 26 23" fill="none" xmlns="http://www.w3.org/2000/svg">
<g id="sketch-2 1" clip-path="url(#clip0_14_146)">
<path id="Vector" fill-rule="evenodd" clip-rule="evenodd" d="M5.42172 8.29224L12.8669 22.9273L0.352905 8.29224H5.42172Z" fill="#EA6C00"/>
<path id="Vector_2" fill-rule="evenodd" clip-rule="evenodd" d="M20.3147 8.29224L12.8695 22.9273L25.3835 8.29224H20.3147Z" fill="#EA6C00"/>
<path id="Vector_3" fill-rule="evenodd" clip-rule="evenodd" d="M5.42224 8.29224H20.3126L12.8674 22.9273L5.42224 8.29224Z" fill="#FDAD00"/>
<path id="Vector_4" fill-rule="evenodd" clip-rule="evenodd" d="M12.8674 0.181396L5.81411 0.930179L5.42224 8.29214L12.8674 0.181396Z" fill="#FDD231"/>
<path id="Vector_5" fill-rule="evenodd" clip-rule="evenodd" d="M12.8667 0.181396L19.92 0.930179L20.3119 8.29214L12.8667 0.181396Z" fill="#FDD231"/>
<path id="Vector_6" fill-rule="evenodd" clip-rule="evenodd" d="M25.3835 8.29214L19.9229 0.930176L20.3147 8.29214H25.3835Z" fill="#FDAD00"/>
<path id="Vector_7" fill-rule="evenodd" clip-rule="evenodd" d="M0.352905 8.29214L5.81359 0.930176L5.42172 8.29214H0.352905Z" fill="#FDAD00"/>
<path id="Vector_8" fill-rule="evenodd" clip-rule="evenodd" d="M12.8674 0.181396L5.42224 8.29214H20.3126L12.8674 0.181396Z" fill="#FEEEB7"/>
</g>
<defs>
<clipPath id="clip0_14_146">
<rect width="25.1723" height="22.8839" fill="white" transform="translate(0.307617 0.0698242)"/>
</clipPath>
</defs>
</svg>
